<!DOCTYPE svg PUBLIC "-//W3C//DTD SVG 1.1//EN" "http://www.w3.org/Graphics/SVG/1.1/DTD/svg11.dtd">
<!-- Uploaded to: SVG Repo, www.svgrepo.com, Transformed by: SVG Repo Mixer Tools -->
<svg version="1.1" id="Icons" xmlns="http://www.w3.org/2000/svg" xmlns:xlink="http://www.w3.org/1999/xlink" viewBox="-6.72 -6.72 45.44 45.44" xml:space="preserve" width="800px" height="800px" fill="#000000">
<g id="SVGRepo_bgCarrier" stroke-width="0">
<path transform="translate(-6.72, -6.72), scale(1.42)" d="M16,31.48789149026076C19.19120878810056,31.528902111225154,22.354728783689705,30.102130334958698,24.592688728182715,27.82682141370713C26.65291283518235,25.732214536596217,26.626316356084203,22.541885717632574,27.544270151843197,19.7509607509675C28.466819789396666,16.94606269582422,30.714088912176,14.317888975183685,29.976223561976227,11.458849685759498C29.229201707886645,8.564331288436232,26.30640536502843,6.894037700685025,23.804065475895886,5.258625372803639C21.419354450124064,3.7000897690196695,18.82830659466971,2.6660549253742296,16,2.3246435734132938C12.8298698994271,1.9419699249593354,9.104409338229932,1.09742187416093,6.695465690594887,3.1934071981310606C4.288672217873582,5.287521687527045,4.763179915642957,9.098120055443458,4.556230434987576,12.281693869176783C4.3973904322941975,14.725183321513427,5.1723446315847355,16.962045158214753,5.64423846843941,19.364790891095083C6.201616596995809,22.2027976955835,5.687762787947539,25.40889778133122,7.566284903725768,27.60801298091665C9.626579078230636,30.01992189416038,12.82817793799007,31.44713001052411,16,31.48789149026076" fill="#9CAF88" strokewidth="0"/>
</g>
<g id="SVGRepo_tracerCarrier" stroke-linecap="round" stroke-linejoin="round"/>
<g id="SVGRepo_iconCarrier"> <style type="text/css"> .st0{fill:none;stroke:#ffffff;stroke-width:0.768;stroke-linecap:round;stroke-linejoin:round;stroke-miterlimit:10;} .st1{fill:none;stroke:#ffffff;stroke-width:0.768;stroke-linecap:round;stroke-linejoin:round;} .st2{fill:none;stroke:#ffffff;stroke-width:0.768;stroke-linecap:round;stroke-linejoin:round;stroke-dasharray:6,6;} .st3{fill:none;stroke:#ffffff;stroke-width:0.768;stroke-linecap:round;stroke-linejoin:round;stroke-dasharray:4,4;} .st4{fill:none;stroke:#ffffff;stroke-width:0.768;stroke-linecap:round;} .st5{fill:none;stroke:#ffffff;stroke-width:0.768;stroke-linecap:round;stroke-dasharray:3.1081,3.1081;} .st6{fill:none;stroke:#ffffff;stroke-width:0.768;stroke-linecap:round;stroke-linejoin:round;stroke-miterlimit:10;stroke-dasharray:4,3;} </style> <polygon class="st0" points="25,16 19,16 26,3 14,3 7,16 13,16 7,29 "/> </g>
</svg>