<?xml version="1.0" encoding="UTF-8" standalone="no"?>
<!-- Created with Inkscape (http://www.inkscape.org/) -->

<svg
   xmlns:dc="http://purl.org/dc/elements/1.1/"
   xmlns:cc="http://creativecommons.org/ns#"
   xmlns:rdf="http://www.w3.org/1999/02/22-rdf-syntax-ns#"
   xmlns:svg="http://www.w3.org/2000/svg"
   xmlns="http://www.w3.org/2000/svg"
   xmlns:sodipodi="http://sodipodi.sourceforge.net/DTD/sodipodi-0.dtd"
   xmlns:inkscape="http://www.inkscape.org/namespaces/inkscape"
   version="1.1"
   id="svg95295"
   xml:space="preserve"
   width="864"
   height="793.70667"
   viewBox="0 0 864 793.70667"
   sodipodi:docname="wood-publicdomainvectors.org.svg"
   inkscape:version="0.92.4 (5da689c313, 2019-01-14)"><metadata
     id="metadata95301"><rdf:RDF><cc:Work
         rdf:about=""><dc:format>image/svg+xml</dc:format><dc:type
           rdf:resource="http://purl.org/dc/dcmitype/StillImage" /><dc:title></dc:title></cc:Work></rdf:RDF></metadata><defs
     id="defs95299"><clipPath
       clipPathUnits="userSpaceOnUse"
       id="clipPath95311"><path
         d="M 0,595.28 H 648 V 0 H 0 Z"
         id="path95309"
         inkscape:connector-curvature="0" /></clipPath></defs><sodipodi:namedview
     pagecolor="#ffffff"
     bordercolor="#666666"
     borderopacity="1"
     objecttolerance="10"
     gridtolerance="10"
     guidetolerance="10"
     inkscape:pageopacity="0"
     inkscape:pageshadow="2"
     inkscape:window-width="797"
     inkscape:window-height="480"
     id="namedview95297"
     showgrid="false"
     inkscape:zoom="0.29733907"
     inkscape:cx="432"
     inkscape:cy="396.85333"
     inkscape:window-x="0"
     inkscape:window-y="0"
     inkscape:window-maximized="0"
     inkscape:current-layer="g95303" /><g
     id="g95303"
     inkscape:groupmode="layer"
     inkscape:label="wood-publicdomainvectors.org"
     transform="matrix(1.3333333,0,0,-1.3333333,0,793.70667)"><g
       id="g95305"><g
         id="g95307"
         clip-path="url(#clipPath95311)"><path
           d="m 336.384,323.565 c -0.489,-2.246 -1.315,-4.996 -2.95,-7.847 -1.61,-2.849 -3.976,-5.85 -7.301,-8.321 -3.329,-2.422 -7.622,-4.306 -12.387,-4.815 -0.593,-0.084 -1.192,-0.082 -1.796,-0.12 l -0.906,-0.042 -0.455,-0.014 -0.43,0.009 -0.087,0.008 -0.176,0.015 c -0.991,0.093 -1.698,0.083 -3.263,0.356 -1.44,0.198 -2.664,0.538 -3.865,0.897 -1.215,0.374 -2.414,0.855 -3.585,1.395 -4.64,2.267 -8.767,5.896 -11.43,10.493 -1.332,2.294 -2.303,4.782 -2.954,7.337 -0.265,1.294 -0.535,2.581 -0.611,3.893 -0.064,0.653 -0.127,1.303 -0.103,1.956 l 0.03,2.186 c 0.167,1.806 0.696,5.053 1.574,7.291 0.919,2.378 2.117,4.607 3.605,6.58 1.534,1.938 3.236,3.679 5.113,5.145 1.913,1.416 3.947,2.598 6.08,3.44 4.183,1.778 8.87,2.128 12.711,1.706 4.357,-0.557 7.947,-1.869 11.145,-3.756 3.15,-1.871 5.667,-4.251 7.529,-6.671 1.895,-2.417 3.024,-4.923 3.767,-7.031 0.374,-1.061 0.645,-2.029 0.793,-2.894 0.188,-0.855 0.326,-1.592 0.368,-2.195 0.119,-1.208 0.184,-1.853 0.184,-1.853 l -0.005,-0.236 c 0,0 0.008,-0.535 0.021,-1.539 0.038,-0.815 -0.147,-3.299 -0.616,-5.373 m -23.903,50.519 c -24.981,0 -45.304,-20.324 -45.304,-45.304 0,-24.982 20.323,-45.308 45.304,-45.308 24.982,0 45.306,20.326 45.306,45.308 0,24.98 -20.324,45.304 -45.306,45.304"
           style="fill:#f8c260;fill-opacity:1;fill-rule:nonzero;stroke:none"
           id="path95313"
           inkscape:connector-curvature="0" /><path
           d="m 325.595,340.564 c -0.999,1.912 -2.5,3.971 -4.68,5.671 -2.133,1.653 -5.157,2.966 -8.094,3.281 -0.737,0.065 -2.002,0.139 -2.552,0.105 -0.819,-0.084 -1.65,-0.096 -2.466,-0.292 -1.653,-0.249 -3.261,-0.846 -4.815,-1.559 -3.049,-1.567 -5.764,-4.027 -7.424,-7.115 -0.833,-1.539 -1.406,-3.19 -1.788,-4.859 -0.34,-1.845 -0.363,-2.857 -0.296,-5.32 0.014,0.462 0.007,0.105 0.012,0.198 l 0.007,-0.039 0.011,-0.079 0.024,-0.157 0.048,-0.312 0.087,-0.623 c 0.036,-0.416 0.153,-0.819 0.256,-1.221 0.159,-0.811 0.474,-1.578 0.74,-2.344 0.65,-1.493 1.452,-2.882 2.439,-4.102 1.031,-1.184 2.131,-2.256 3.331,-3.153 1.235,-0.849 2.518,-1.564 3.855,-2.053 0.664,-0.247 1.331,-0.474 2.006,-0.632 0.694,-0.157 1.359,-0.296 1.838,-0.315 0.33,-0.102 1.536,-0.097 2.424,-0.121 0.579,0.041 1.151,0.081 1.714,0.121 2.532,0.358 4.851,1.106 6.854,2.219 2.004,1.104 3.657,2.54 4.908,4.024 1.274,1.48 2.036,3.051 2.564,4.381 0.268,0.686 0.464,1.283 0.551,1.72 0.065,0.237 0.125,0.452 0.183,0.653 0.058,0.206 0.072,0.555 0.108,0.781 0.112,0.997 0.172,1.529 0.172,1.529 l -0.006,-0.238 c 0,0 0.013,0.422 0.033,1.213 0.026,0.793 -0.033,1.963 -0.295,3.439 -0.275,1.467 -0.731,3.287 -1.749,5.199"
           style="fill:#f8c260;fill-opacity:1;fill-rule:nonzero;stroke:none"
           id="path95315"
           inkscape:connector-curvature="0" /><path
           d="m 314.416,247.628 c -43.68,0 -79.216,35.536 -79.216,79.216 0,43.68 35.536,79.216 79.216,79.216 43.681,0 79.219,-35.536 79.219,-79.216 0,-43.68 -35.538,-79.216 -79.219,-79.216 m 99.737,84.2 c -0.091,1.125 -0.059,2.393 -0.267,3.766 -0.215,1.37 -0.451,2.865 -0.707,4.483 -0.28,1.61 -0.462,3.365 -0.868,5.194 -0.478,1.814 -0.984,3.741 -1.515,5.779 -2.324,8.046 -5.913,17.792 -12.616,27.445 -6.549,9.658 -15.669,19.584 -27.78,27.312 -6.137,3.684 -12.704,7.279 -20.017,9.697 -1.82,0.613 -3.64,1.28 -5.495,1.871 -1.899,0.447 -3.814,0.897 -5.742,1.353 l -2.894,0.689 c -0.971,0.218 -1.926,0.271 -2.894,0.42 -1.922,0.261 -3.859,0.524 -5.811,0.79 -1.933,0.285 -4.272,0.198 -6.412,0.317 l -3.295,0.105 -1.541,0.05 c 0.021,-10e-4 0.029,-0.003 0.001,-0.003 l -0.193,-0.015 -0.39,-0.028 -0.779,-0.057 c -4.151,-0.356 -8.378,-0.382 -12.541,-1.308 -8.429,-1.167 -16.688,-4.057 -24.682,-7.601 -1.957,-0.989 -3.922,-1.983 -5.894,-2.982 -1.958,-1.014 -3.758,-2.336 -5.658,-3.485 l -2.822,-1.785 -2.649,-2.053 c -1.738,-1.402 -3.583,-2.687 -5.257,-4.182 -6.78,-5.923 -12.732,-12.856 -17.828,-20.434 l -3.489,-5.907 c -0.624,-0.962 -1.128,-1.99 -1.587,-3.044 l -1.455,-3.116 -1.49,-3.104 c -0.463,-1.05 -0.794,-2.155 -1.201,-3.23 -0.745,-2.175 -1.639,-4.303 -2.283,-6.512 l -1.692,-6.706 -0.425,-1.675 -0.234,-1.641 -0.489,-3.273 -0.512,-3.272 c -0.213,-1.042 -0.16,-2.453 -0.253,-3.661 l -0.337,-7.175 c 0.003,-0.032 0.002,-0.225 0.005,-0.158 l 0.013,-0.216 0.02,-0.434 0.043,-0.866 0.084,-1.735 0.159,-3.465 c 0,-2.323 0.397,-4.603 0.747,-6.888 l 0.505,-3.425 0.249,-1.716 0.425,-1.676 1.692,-6.708 c 0.644,-2.209 1.538,-4.339 2.283,-6.513 0.407,-1.073 0.738,-2.178 1.201,-3.228 l 1.49,-3.105 1.455,-3.117 c 0.459,-1.052 0.963,-2.079 1.587,-3.044 l 3.489,-5.906 c 5.096,-7.578 11.048,-14.51 17.828,-20.432 1.674,-1.495 3.519,-2.78 5.257,-4.186 l 2.649,-2.053 2.822,-1.782 c 1.9,-1.148 3.7,-2.47 5.658,-3.486 1.972,-0.999 3.937,-1.991 5.894,-2.984 l 1.466,-0.747 1.527,-0.59 3.053,-1.182 c 2.039,-0.755 4.017,-1.693 6.13,-2.17 2.085,-0.576 4.156,-1.157 6.219,-1.731 2.062,-0.555 4.073,-0.748 6.099,-1.154 3.828,-0.912 8.591,-0.989 12.957,-1.339 l 1.33,-0.093 1.552,0.052 3.097,0.1 c 2.051,0.115 4.118,0.01 6.129,0.291 16.203,1.624 31.042,7.161 43.126,14.847 12.111,7.725 21.231,17.652 27.78,27.309 6.703,9.653 10.292,19.4 12.616,27.448 0.531,2.036 1.037,3.963 1.515,5.778 0.405,1.811 0.576,3.51 0.851,5.09 0.256,1.581 0.491,3.044 0.707,4.381 0.209,1.347 0.188,2.735 0.279,3.889 0.22,4.057 0.35,6.47 0.384,7.066 -0.017,0.314 -0.149,2.662 -0.379,6.856"
           style="fill:#f8c260;fill-opacity:1;fill-rule:nonzero;stroke:none"
           id="path95317"
           inkscape:connector-curvature="0" /><path
           d="m 312.481,276.751 c -28.687,0 -52.026,23.339 -52.026,52.029 0,28.687 23.339,52.027 52.026,52.027 28.69,0 52.029,-23.34 52.029,-52.027 0,-28.69 -23.339,-52.029 -52.029,-52.029 m 1.935,122.041 c -39.673,0 -71.949,-32.276 -71.949,-71.948 0,-39.673 32.276,-71.948 71.949,-71.948 39.673,0 71.95,32.275 71.95,71.948 0,39.672 -32.277,71.948 -71.95,71.948"
           style="fill:#f8c260;fill-opacity:1;fill-rule:nonzero;stroke:none"
           id="path95319"
           inkscape:connector-curvature="0" /><path
           d="m 151.698,238.75 c -3.936,8.287 -7.108,16.942 -9.829,25.738 -2.687,8.822 -4.554,17.879 -5.966,26.999 -1.321,9.201 -1.871,18.258 -1.96,27.742 0.08,8.815 0.638,18.427 1.96,27.491 1.412,9.119 3.279,18.179 5.966,26.998 2.721,8.796 5.893,17.451 9.829,25.738 3.962,8.266 8.35,16.312 13.408,23.892 20.103,30.421 48.723,54.291 80.45,68.563 1.965,0.937 3.956,1.802 5.979,2.578 2.013,0.801 4.023,1.6 6.028,2.397 4.086,1.384 8.106,2.918 12.242,4.023 8.183,2.514 16.512,4.191 24.785,5.546 4.159,0.541 8.286,1.196 12.43,1.45 1.303,0.096 2.605,0.212 3.904,0.314 l 3.899,9.961 c -0.083,-10e-4 -0.167,-0.004 -0.249,-0.007 -2.191,-0.079 -4.378,-0.31 -6.576,-0.456 -4.407,-0.233 -8.793,-0.911 -13.219,-1.448 -8.798,-1.383 -17.667,-3.095 -26.381,-5.714 -4.407,-1.139 -8.69,-2.754 -13.049,-4.184 -2.139,-0.835 -4.283,-1.671 -6.429,-2.51 l -3.219,-1.268 -3.161,-1.432 C 208.656,486.243 177.907,460.94 156.391,428.469 150.963,420.39 146.258,411.808 142,402.996 c -4.232,-8.837 -7.64,-18.074 -10.578,-27.458 -2.898,-9.41 -4.911,-19.085 -6.454,-28.832 -0.632,-4.898 -1.305,-9.809 -1.572,-14.633 -0.491,-4.654 -0.438,-10.186 -0.612,-14.905 0.132,-9.887 0.741,-19.769 2.184,-29.539 1.543,-9.746 3.556,-19.42 6.454,-28.832 2.94,-9.384 6.346,-18.622 10.578,-27.456 4.26,-8.816 8.963,-17.394 14.391,-25.475 4.481,-6.762 9.384,-13.193 14.611,-19.304 l 13.209,4.035 c -6.966,7.519 -13.39,15.615 -19.105,24.261 -5.058,7.58 -9.446,15.626 -13.408,23.892"
           style="fill:#f8c260;fill-opacity:1;fill-rule:nonzero;stroke:none"
           id="path95321"
           inkscape:connector-curvature="0" /><path
           d="m 183.421,230.231 c -17.24,26.665 -26.443,58.87 -25.846,90.808 0.448,31.949 10.678,63.492 28.436,89.085 8.867,12.797 19.424,24.208 31.159,33.864 11.768,9.616 24.711,17.452 38.235,23.272 3.333,1.565 6.815,2.743 10.209,4.073 3.471,1.122 6.883,2.371 10.389,3.259 6.937,2.03 13.987,3.349 20.974,4.399 3.513,0.407 6.997,0.914 10.489,1.079 3.484,0.308 6.958,0.39 10.41,0.424 l 2.658,0.036 2.526,-0.065 c 1.681,-0.047 3.355,-0.091 5.028,-0.134 3.406,-0.27 6.863,-0.43 10.192,-0.858 13.351,-1.615 26.193,-4.594 38.065,-9.031 11.85,-4.468 22.89,-9.937 32.773,-16.361 19.766,-12.893 34.952,-28.934 45.838,-44.797 10.963,-15.9 17.445,-31.73 21.349,-45.055 0.002,-0.004 0.002,-0.008 0.005,-0.013 l 15.234,1.657 c -0.01,0.034 -0.017,0.069 -0.026,0.103 -3.981,14.517 -10.67,31.846 -22.239,49.475 -11.462,17.607 -27.782,35.502 -49.241,50.159 -10.748,7.266 -22.752,13.664 -35.816,18.723 -13.054,5.087 -27.236,8.554 -42.034,10.405 -3.706,0.501 -7.321,0.676 -11.066,1.012 -1.959,0.064 -3.922,0.127 -5.892,0.19 l -2.959,0.097 -0.727,-0.011 13.701,-11.546 -16.364,11.502 c -1.695,-0.029 -3.393,-0.061 -5.095,-0.091 -1.929,-0.057 -3.852,-0.245 -5.788,-0.362 -3.88,-0.176 -7.741,-0.747 -11.64,-1.192 -7.75,-1.165 -15.571,-2.615 -23.264,-4.869 -3.89,-0.977 -7.672,-2.371 -11.525,-3.608 l -5.682,-2.172 c -1.908,-0.699 -3.788,-1.483 -5.641,-2.343 -14.994,-6.476 -29.292,-15.264 -42.297,-25.971 -12.964,-10.767 -24.499,-23.567 -34.086,-37.849 -4.817,-7.132 -8.997,-14.71 -12.785,-22.497 -3.765,-7.809 -6.8,-15.973 -9.422,-24.272 -2.587,-8.32 -4.39,-16.879 -5.78,-25.503 -1.299,-8.728 -1.853,-17.1 -2.001,-26.275 0.143,-8.502 0.702,-17.433 2.001,-26.024 1.389,-8.623 3.193,-17.182 5.78,-25.503 2.622,-8.299 5.657,-16.465 9.422,-24.271 3.788,-7.786 7.968,-15.367 12.785,-22.497 6.44,-9.595 13.776,-18.497 21.814,-26.586 l 3.03,0.925 7.361,7.299 c -8.502,8.366 -16.153,17.71 -22.647,27.91"
           style="fill:#f8c260;fill-opacity:1;fill-rule:nonzero;stroke:none"
           id="path95323"
           inkscape:connector-curvature="0" /><path
           d="m 117.501,416.39 12.943,-7.08 c 4.442,9.15 9.348,18.055 14.98,26.452 22.91,34.596 55.637,61.552 91.756,77.477 l 3.368,1.522 3.433,1.358 c 2.29,0.892 4.559,1.824 6.852,2.674 4.646,1.538 9.214,3.246 13.911,4.472 9.294,2.786 18.746,4.628 28.126,6.099 4.714,0.583 9.389,1.293 14.082,1.551 2.343,0.159 4.674,0.4 7.006,0.486 2.042,0.052 4.071,0.104 6.1,0.157 l 0.486,1.237 -6.687,12.082 C 227.473,541.586 153.249,489.999 117.501,416.39"
           style="fill:#f8c260;fill-opacity:1;fill-rule:nonzero;stroke:none"
           id="path95325"
           inkscape:connector-curvature="0" /><path
           d="m 130.103,225.723 c -4.504,9.42 -8.139,19.262 -11.263,29.27 -3.082,10.031 -5.234,20.342 -6.865,30.726 -1.533,10.409 -2.184,20.93 -2.312,31.449 0.186,5.477 0.105,10.165 0.627,15.669 0.299,5.371 1.009,10.569 1.685,15.781 1.631,10.383 3.783,20.695 6.863,30.726 3.124,10.005 6.76,19.848 11.265,29.269 0.052,0.109 0.105,0.216 0.158,0.325 l -13.559,5.776 C 102.63,385.125 94.741,352.052 94.741,317.168 c 0,-56.153 20.426,-107.616 54.223,-147.383 l 9.189,11.592 c -4.506,5.499 -8.773,11.226 -12.728,17.2 -5.776,8.608 -10.793,17.75 -15.322,27.146"
           style="fill:#f8c260;fill-opacity:1;fill-rule:nonzero;stroke:none"
           id="path95327"
           inkscape:connector-curvature="0" /><path
           d="m 550.53,317.168 c 0,17.216 -1.93,33.988 -5.566,50.121 l -12.071,-0.797 c 3.377,-14.187 4.617,-25.878 5.162,-34.207 0.467,-4.917 0.381,-8.707 0.492,-11.253 0.066,-2.55 0.097,-3.864 0.097,-3.864 V 317 c 0,0 -0.035,-1.276 -0.097,-3.748 -0.113,-2.513 -0.015,-6.014 -0.487,-11.095 -0.656,-10.043 -2.244,-24.386 -7.201,-42.206 -4.915,-17.72 -13.158,-38.854 -27.325,-60.31 -14.056,-21.416 -33.962,-43.233 -60.262,-60.836 -13.145,-8.753 -27.811,-16.43 -43.741,-22.463 -4.275,-1.63 -8.654,-3.104 -13.109,-4.446 l 4.897,-12.037 c 92.199,29.205 159.211,115.574 159.211,217.309"
           style="fill:#f8c260;fill-opacity:1;fill-rule:nonzero;stroke:none"
           id="path95329"
           inkscape:connector-curvature="0" /><path
           d="m 334.77,102.942 c -2.291,-0.055 -4.591,-0.115 -6.895,-0.173 l -3.462,-0.085 -3.546,0.07 c -2.25,0.059 -4.505,0.116 -6.767,0.174 -2.286,0.085 -4.714,0.328 -7.072,0.487 -4.799,0.263 -9.438,0.975 -14.158,1.554 -9.38,1.475 -18.831,3.311 -28.126,6.101 -4.696,1.223 -9.264,2.934 -13.91,4.473 -2.295,0.849 -4.563,1.78 -6.853,2.673 l -3.431,1.358 -3.371,1.523 c -27.897,12.299 -53.748,31.206 -74.64,55.106 l -8.289,-12.438 c 41.709,-45.742 101.751,-74.49 168.386,-74.49 22.288,0 43.835,3.231 64.208,9.223 l -4.029,12.355 c -11.053,-3.115 -22.586,-5.387 -34.436,-6.775 -4.487,-0.571 -9.042,-0.774 -13.609,-1.136"
           style="fill:#f8c260;fill-opacity:1;fill-rule:nonzero;stroke:none"
           id="path95331"
           inkscape:connector-curvature="0" /><path
           d="m 260.529,186.359 c 3.068,-1.45 6.279,-2.515 9.399,-3.747 3.199,-1.022 6.335,-2.183 9.566,-2.994 6.383,-1.869 12.874,-3.067 19.308,-4.038 3.226,-0.366 6.484,-0.847 9.558,-0.979 1.582,-0.094 3.045,-0.25 4.712,-0.302 1.701,-0.031 3.398,-0.063 5.089,-0.091 2.977,-0.111 6.285,0.118 9.383,0.153 3.127,0.257 6.251,0.392 9.322,0.792 12.292,1.496 24.112,4.22 35.037,8.302 10.905,4.114 21.076,9.127 30.191,15.035 18.221,11.859 32.245,26.628 42.302,41.232 10.131,14.636 16.121,29.215 19.737,41.485 3.655,12.261 4.958,22.501 5.506,29.16 0.388,3.274 0.372,6.205 0.485,8.015 0.064,1.573 0.104,2.495 0.113,2.742 -0.002,0.254 -0.009,1.133 -0.021,2.62 -0.054,1.783 0.064,4.44 -0.211,7.889 -0.327,6.894 -1.274,17.066 -4.537,29.605 -0.063,0.261 -0.138,0.528 -0.203,0.791 l -18.68,-1.233 c 0.215,-0.724 0.42,-1.441 0.617,-2.147 0.705,-2.786 1.373,-5.424 2.002,-7.905 0.541,-2.499 0.782,-4.895 1.149,-7.095 0.329,-2.208 0.63,-4.251 0.908,-6.121 0.264,-1.872 0.223,-3.599 0.335,-5.132 0.287,-6.146 0.441,-9.423 0.441,-9.423 l -0.007,-0.219 c 0,0 -0.147,-3.172 -0.429,-9.119 -0.107,-1.504 -0.058,-3.114 -0.325,-5.01 -0.276,-1.903 -0.58,-3.98 -0.911,-6.222 -0.366,-2.233 -0.617,-4.687 -1.161,-7.201 -0.629,-2.482 -1.297,-5.119 -2.002,-7.905 -3.095,-11.019 -7.954,-24.325 -16.769,-37.778 -8.675,-13.462 -20.989,-27.211 -37.284,-38.579 -16.329,-11.227 -36.761,-19.749 -59.496,-22.822 -2.826,-0.487 -5.719,-0.471 -8.61,-0.728 -1.45,-0.095 -2.902,-0.192 -4.361,-0.286 l -2.194,-0.141 c 0.208,-0.011 -0.592,-0.008 -0.604,-0.003 l -0.262,0.01 -0.524,0.019 -1.049,0.032 c -5.648,0.27 -11.079,0.096 -17.388,1.182 -12.425,1.322 -24.094,4.925 -35.838,9.65 -2.861,1.322 -5.735,2.653 -8.619,3.988 -2.867,1.372 -5.535,3.145 -8.326,4.719 l -4.157,2.446 c -1.329,0.904 -2.62,1.872 -3.934,2.81 -2.591,1.925 -5.31,3.718 -7.814,5.792 -10.076,8.279 -18.911,18.208 -26.569,29.102 -7.484,11.05 -13.204,23.347 -17.341,36.212 l -2.561,9.814 -0.627,2.461 -0.396,2.509 -0.787,5.021 -0.776,5.025 c -0.306,1.672 -0.25,3.378 -0.391,5.064 l -0.275,5.078 -0.13,2.538 -0.065,1.271 -0.034,0.635 -0.016,0.317 c 0,0.307 -0.021,-0.236 -0.004,0.768 l 0.514,9.512 c 0.134,1.628 0.06,3.073 0.366,4.85 l 0.777,5.19 0.805,5.183 0.411,2.588 0.628,2.464 2.561,9.816 c 4.137,12.864 9.857,25.161 17.341,36.208 7.658,10.898 16.493,20.828 26.569,29.104 2.504,2.076 5.223,3.868 7.814,5.793 1.314,0.939 2.605,1.907 3.934,2.811 l 4.157,2.445 c 2.791,1.574 5.459,3.346 8.326,4.718 2.884,1.336 5.758,2.666 8.619,3.989 11.657,4.713 23.61,8.354 35.641,9.623 5.96,1.069 11.951,0.952 17.825,1.214 l 1.1,0.037 0.549,0.017 0.276,0.009 c 0.021,0.009 0.809,-0.022 0.599,-0.019 l 2.086,-0.14 c 1.391,-0.093 2.773,-0.187 4.154,-0.278 1.379,-0.093 2.755,-0.186 4.125,-0.277 1.375,-0.102 2.707,-0.13 4.19,-0.426 2.89,-0.481 5.764,-0.957 8.613,-1.43 1.414,-0.267 2.866,-0.428 4.224,-0.781 1.352,-0.369 2.694,-0.735 4.036,-1.101 2.676,-0.735 5.332,-1.466 7.966,-2.19 2.574,-0.913 5.091,-1.926 7.603,-2.875 5.094,-1.726 9.714,-4.321 14.349,-6.602 2.358,-1.071 4.478,-2.52 6.632,-3.857 2.141,-1.35 4.259,-2.686 6.358,-4.011 16.295,-11.37 28.609,-25.118 37.287,-38.579 8.2,-12.518 12.973,-24.91 16.093,-35.449 l 18.49,2.01 c -1.52,5.799 -3.699,12.003 -6.374,18.578 -2.949,7.246 -6.8,14.828 -11.626,22.508 -9.599,15.349 -23.43,31.123 -41.99,43.897 -18.443,12.786 -41.69,22.468 -67.454,25.242 -25.674,2.965 -53.611,-0.946 -79.235,-12.563 -25.553,-11.63 -48.677,-31.014 -64.404,-55.8 -15.883,-24.652 -24.317,-54.314 -23.732,-83.812 0.462,-29.511 9.923,-58.517 26.322,-82.092 6.309,-9.073 13.546,-17.384 21.48,-24.791 l 1.543,1.531 -1.396,-1.666 c 2.322,-2.162 4.697,-4.257 7.134,-6.26 10.857,-8.85 22.788,-16.056 35.242,-21.402"
           style="fill:#f8c260;fill-opacity:1;fill-rule:nonzero;stroke:none"
           id="path95333"
           inkscape:connector-curvature="0" /><path
           d="m 420.038,172.599 c 21.459,14.656 37.777,32.551 49.241,50.158 11.569,17.626 18.258,34.954 22.239,49.471 4.011,14.508 5.297,26.554 5.778,34.366 0.379,3.841 0.297,7.279 0.387,9.401 0.04,1.692 0.062,2.738 0.072,3.126 -0.003,0.085 -0.027,1.147 -0.075,3.149 -0.09,2.085 0.003,5.194 -0.377,9.221 -0.47,7.649 -1.648,18.742 -5.203,32.308 l -15.38,-1.014 c 3.631,-12.704 4.943,-23.138 5.524,-30.3 0.41,-3.72 0.389,-6.59 0.507,-8.518 0.077,-1.932 0.117,-2.929 0.117,-2.929 l -0.002,-0.16 c 0,0 -0.007,-0.958 -0.026,-2.817 -0.055,-1.904 0.068,-4.5 -0.229,-8.391 -0.382,-7.674 -1.414,-18.552 -4.969,-32.192 -1.668,-6.823 -4.216,-14.197 -7.429,-22.034 -3.211,-7.848 -7.397,-16.059 -12.637,-24.371 -10.425,-16.608 -25.415,-33.654 -45.521,-47.464 -10.046,-6.851 -21.244,-13.033 -33.556,-17.71 -12.27,-4.767 -25.611,-8.004 -39.507,-9.587 -3.47,-0.439 -6.992,-0.596 -10.52,-0.866 -1.772,-0.044 -3.545,-0.091 -5.327,-0.133 l -2.675,-0.063 -2.787,0.073 c -1.692,0.053 -3.386,0.108 -5.088,0.161 -1.737,0.078 -3.674,0.272 -5.506,0.41 -3.771,0.234 -7.328,0.798 -10.973,1.275 -7.237,1.181 -14.525,2.648 -21.684,4.847 -3.617,0.966 -7.139,2.305 -10.712,3.513 -3.495,1.422 -7.078,2.692 -10.504,4.354 -16.647,7.559 -32.314,18.166 -45.885,31.233 l -6.899,-8.226 -0.175,-0.21 -0.371,-0.152 -1.869,-0.764 c 3.208,-3.108 6.518,-6.094 9.931,-8.929 13.006,-10.71 27.304,-19.499 42.297,-25.976 1.855,-0.856 3.734,-1.643 5.643,-2.342 l 5.681,-2.168 c 3.852,-1.239 7.635,-2.635 11.524,-3.611 7.694,-2.253 15.514,-3.702 23.266,-4.871 3.891,-0.445 7.788,-1.014 11.569,-1.186 1.92,-0.116 3.755,-0.302 5.726,-0.363 1.994,-0.036 3.983,-0.071 5.967,-0.107 3.694,-0.143 7.601,0.179 11.35,0.238 3.765,0.333 7.523,0.517 11.217,1.018 9.689,1.21 19.105,3.13 28.121,5.727 l -3.788,11.615 4.625,-11.364 c 4.463,1.311 8.834,2.775 13.076,4.43 13.064,5.058 25.068,11.457 35.816,18.724"
           style="fill:#f8c260;fill-opacity:1;fill-rule:nonzero;stroke:none"
           id="path95335"
           inkscape:connector-curvature="0" /><path
           d="m 435.878,149.852 c 24.666,16.525 43.339,37.008 56.518,57.098 13.281,20.127 20.997,39.944 25.596,56.554 4.638,16.613 6.143,30.356 6.727,39.37 0.439,4.446 0.359,8.296 0.466,10.719 0.049,2.002 0.082,3.203 0.091,3.592 -0.003,0.091 -0.034,1.312 -0.091,3.61 -0.112,2.39 -0.015,5.95 -0.461,10.561 -0.531,8.237 -1.788,19.964 -5.353,34.244 l -11.991,-0.792 c 3.378,-13.443 4.591,-24.491 5.119,-32.256 0.425,-4.375 0.357,-7.747 0.463,-10.012 0.062,-2.267 0.095,-3.436 0.095,-3.436 l -0.002,-0.194 c 0,0 -0.033,-1.124 -0.093,-3.303 -0.108,-2.228 -0.026,-5.271 -0.455,-9.831 -0.609,-8.982 -2.051,-21.698 -6.5,-37.547 -4.404,-15.75 -11.782,-34.517 -24.414,-53.554 -12.542,-18.977 -30.239,-38.373 -53.705,-53.806 -11.71,-7.689 -24.759,-14.41 -38.907,-19.662 -4.158,-1.554 -8.434,-2.936 -12.781,-4.186 l 5.195,-12.77 c 4.583,1.353 9.085,2.845 13.465,4.517 14.937,5.665 28.691,12.869 41.018,21.084"
           style="fill:#f8c260;fill-opacity:1;fill-rule:nonzero;stroke:none"
           id="path95337"
           inkscape:connector-curvature="0" /><path
           d="m 331.596,129.721 c -4.082,-0.019 -8.058,-0.292 -12.295,-0.087 -1.982,0.061 -3.97,0.129 -5.963,0.191 -2.018,0.087 -4.166,0.316 -6.252,0.473 -4.24,0.258 -8.33,0.912 -12.495,1.452 -8.274,1.354 -16.603,3.032 -24.787,5.546 -4.135,1.108 -8.156,2.642 -12.242,4.021 -2.005,0.799 -4.015,1.598 -6.026,2.399 -2.025,0.78 -4.016,1.64 -5.979,2.579 -21.406,9.631 -41.383,23.641 -58.297,41.07 l -12.489,-5.106 c 19.202,-21.204 42.618,-38.012 67.769,-49.085 l 3.16,-1.432 3.22,-1.268 c 2.149,-0.837 4.291,-1.677 6.429,-2.509 4.359,-1.434 8.642,-3.047 13.048,-4.186 8.717,-2.62 17.584,-4.328 26.383,-5.716 4.419,-0.535 8.842,-1.214 13.145,-1.441 2.18,-0.143 4.274,-0.372 6.51,-0.457 2.262,-0.058 4.517,-0.113 6.767,-0.169 l 3.19,-0.067 3.252,0.085 c 2.166,0.054 4.323,0.111 6.475,0.164 4.286,0.347 8.565,0.527 12.777,1.071 10.937,1.29 21.588,3.372 31.803,6.222 l -4.258,13.053 c -9.893,-2.736 -20.212,-4.71 -30.803,-5.879 -3.973,-0.48 -8.004,-0.632 -12.042,-0.924"
           style="fill:#f8c260;fill-opacity:1;fill-rule:nonzero;stroke:none"
           id="path95339"
           inkscape:connector-curvature="0" /><path
           d="m 423.166,324.908 -0.004,-0.218 c 0,0 -0.119,-2.512 -0.338,-7.223 -0.087,-1.194 -0.046,-2.456 -0.256,-3.977 -0.221,-1.526 -0.465,-3.19 -0.726,-4.99 -0.291,-1.79 -0.494,-3.761 -0.931,-5.771 -0.499,-1.983 -1.032,-4.089 -1.595,-6.316 -2.47,-8.801 -6.35,-19.428 -13.377,-30.185 -6.921,-10.762 -16.751,-21.747 -29.755,-30.859 -13.036,-8.991 -29.362,-15.831 -47.542,-18.312 -2.257,-0.394 -4.574,-0.39 -6.888,-0.596 l -3.486,-0.234 -1.753,-0.114 c 0.213,-0.012 -0.537,-0.008 -0.536,-0.003 l -0.208,0.007 -0.416,0.013 -0.83,0.028 c -4.482,0.205 -8.742,0.053 -13.845,0.917 -10.002,1.05 -19.304,3.911 -28.722,7.684 -2.292,1.057 -4.593,2.116 -6.904,3.182 -2.299,1.096 -4.437,2.511 -6.674,3.766 l -3.329,1.957 -3.154,2.241 c -2.076,1.542 -4.256,2.972 -6.263,4.632 -8.076,6.617 -15.158,14.564 -21.3,23.288 -6.004,8.842 -10.595,18.693 -13.906,28.998 l -2.054,7.865 -0.502,1.971 -0.321,2.007 -0.631,4.022 c -0.43,2.683 -0.89,5.362 -0.938,8.084 l -0.22,4.067 -0.106,2.035 -0.052,1.016 -0.027,0.509 -0.012,0.256 c 0.001,0.271 -0.019,-0.251 -0.002,0.674 l 0.409,7.531 c 0.107,1.297 0.049,2.422 0.292,3.859 l 0.625,4.18 0.649,4.173 0.333,2.084 0.503,1.974 2.054,7.865 c 3.311,10.305 7.902,20.153 13.906,28.998 6.142,8.722 13.224,16.668 21.3,23.287 2.007,1.658 4.187,3.093 6.263,4.631 l 3.154,2.243 3.329,1.954 c 2.237,1.257 4.375,2.671 6.674,3.767 2.311,1.064 4.612,2.127 6.904,3.183 9.336,3.762 18.907,6.656 28.535,7.659 4.77,0.847 9.564,0.749 14.26,0.95 l 0.882,0.028 0.439,0.013 0.221,0.006 0.528,-0.017 1.654,-0.114 3.288,-0.227 c 2.226,-0.204 4.266,-0.179 6.602,-0.569 2.323,-0.387 4.63,-0.772 6.92,-1.155 1.133,-0.214 2.303,-0.348 3.389,-0.631 l 3.227,-0.886 c 2.141,-0.592 4.262,-1.179 6.368,-1.761 2.057,-0.733 4.067,-1.547 6.075,-2.309 8.05,-3.015 15.217,-7.259 21.838,-11.6 13.004,-9.111 22.834,-20.096 29.755,-30.858 7.027,-10.755 10.907,-21.382 13.377,-30.185 0.563,-2.225 1.096,-4.332 1.595,-6.315 0.432,-1.996 0.625,-3.908 0.914,-5.667 0.264,-1.763 0.507,-3.394 0.727,-4.888 0.212,-1.497 0.176,-2.875 0.264,-4.098 0.231,-4.908 0.35,-7.526 0.35,-7.526 m -35.957,101.224 c -1.974,1.149 -3.965,2.311 -5.98,3.485 -2.016,1.164 -3.994,2.44 -6.196,3.34 -4.329,1.936 -8.611,4.194 -13.33,5.596 -2.321,0.788 -4.641,1.643 -7.006,2.401 -2.422,0.575 -4.864,1.156 -7.324,1.74 -1.228,0.296 -2.461,0.591 -3.693,0.889 -1.236,0.28 -2.471,0.355 -3.708,0.548 -2.469,0.338 -4.955,0.681 -7.46,1.024 -1.201,0.234 -2.617,0.223 -3.984,0.276 -1.375,0.048 -2.752,0.094 -4.134,0.141 -1.381,0.047 -2.767,0.094 -4.16,0.14 l -1.989,0.068 c 0.002,-10e-4 -0.002,-0.002 -0.023,-0.002 l -0.249,-0.019 -0.495,-0.035 -0.998,-0.069 c -5.299,-0.442 -10.696,-0.468 -16.015,-1.636 -10.764,-1.47 -21.325,-5.135 -31.552,-9.644 -2.503,-1.259 -5.016,-2.525 -7.539,-3.795 -2.507,-1.295 -4.811,-2.975 -7.241,-4.441 l -3.612,-2.273 c -1.149,-0.841 -2.258,-1.745 -3.392,-2.615 -2.228,-1.789 -4.587,-3.429 -6.733,-5.336 -8.68,-7.555 -16.304,-16.413 -22.832,-26.097 -1.488,-2.512 -2.978,-5.029 -4.474,-7.549 -0.366,-0.635 -0.766,-1.249 -1.108,-1.897 l -0.927,-1.994 -1.868,-3.984 -1.905,-3.974 c -0.594,-1.341 -1.021,-2.755 -1.54,-4.129 -0.956,-2.782 -2.098,-5.508 -2.925,-8.333 l -2.169,-8.58 -0.542,-2.143 -0.306,-2.114 -0.632,-4.222 -0.658,-4.22 c -0.27,-1.352 -0.202,-3.106 -0.322,-4.639 l -0.43,-9.139 c 0.005,0 0.002,-0.274 0.008,-0.205 l 0.013,-0.277 0.029,-0.554 0.055,-1.108 0.106,-2.218 0.208,-4.439 c 0.112,-1.47 0.027,-2.966 0.298,-4.423 l 0.66,-4.383 0.65,-4.386 0.319,-2.193 0.544,-2.145 2.169,-8.581 c 0.827,-2.825 1.969,-5.554 2.925,-8.333 0.519,-1.373 0.946,-2.79 1.54,-4.128 l 1.905,-3.973 1.868,-3.986 0.927,-1.993 c 0.342,-0.648 0.742,-1.263 1.108,-1.898 1.496,-2.518 2.986,-5.037 4.474,-7.548 6.528,-9.685 14.152,-18.543 22.832,-26.099 2.146,-1.906 4.505,-3.547 6.733,-5.337 1.134,-0.868 2.243,-1.773 3.392,-2.613 l 3.612,-2.272 c 2.43,-1.466 4.734,-3.148 7.241,-4.439 2.523,-1.273 5.036,-2.541 7.539,-3.798 l 1.877,-0.95 1.955,-0.753 3.901,-1.503 c 2.609,-0.958 5.138,-2.152 7.837,-2.753 2.663,-0.735 5.312,-1.468 7.951,-2.197 2.637,-0.702 5.233,-0.948 7.834,-1.463 4.967,-1.152 10.929,-1.233 16.454,-1.669 l 1.748,-0.113 1.981,0.07 3.952,0.133 c 2.62,0.152 5.255,0.026 7.824,0.391 20.673,2.111 39.591,9.218 54.982,19.051 15.421,9.886 27.026,22.542 35.359,34.864 8.524,12.313 13.098,24.731 16.051,34.988 0.68,2.596 1.319,5.052 1.925,7.363 0.519,2.314 0.738,4.491 1.093,6.514 0.323,2.024 0.62,3.895 0.892,5.609 0.268,1.724 0.237,3.459 0.353,4.921 0.28,5.191 0.446,8.264 0.482,8.963 -0.024,0.446 -0.187,3.458 -0.478,8.749 -0.115,1.433 -0.073,3.051 -0.337,4.799 -0.276,1.745 -0.574,3.651 -0.898,5.711 -0.357,2.053 -0.586,4.29 -1.107,6.619 -0.606,2.312 -1.245,4.769 -1.925,7.363 -2.953,10.255 -7.527,22.675 -16.051,34.988 -8.333,12.318 -19.938,24.975 -35.359,34.865"
           style="fill:#f8c260;fill-opacity:1;fill-rule:nonzero;stroke:none"
           id="path95341"
           inkscape:connector-curvature="0" /><path
           d="m 334.61,531.397 c 4.589,-0.355 9.294,-0.568 13.768,-1.141 17.967,-2.105 35.23,-6.199 51.153,-12.264 15.93,-6.031 30.596,-13.708 43.741,-22.461 26.3,-17.604 46.206,-39.422 60.262,-60.834 14.167,-21.458 22.41,-42.593 27.325,-60.311 0.39,-1.398 0.75,-2.766 1.1,-4.122 l 11.992,1.303 c -24.455,99.48 -114.395,173.496 -221.316,173.496 -0.553,0 -1.1,-0.018 -1.652,-0.023 l 5.978,-10.535 0.719,-1.569 -0.66,-1.247 -0.052,-0.1 0.958,-0.024 c 2.233,-0.057 4.466,-0.112 6.684,-0.168"
           style="fill:#f8c260;fill-opacity:1;fill-rule:nonzero;stroke:none"
           id="path95343"
           inkscape:connector-curvature="0" /><path
           d="m 322.59,508.655 2.959,-0.056 c 1.972,-0.036 3.937,-0.072 5.896,-0.107 4.056,-0.287 8.23,-0.451 12.193,-0.93 15.901,-1.759 31.206,-5.285 45.343,-10.564 14.148,-5.252 27.197,-11.972 38.907,-19.662 23.466,-15.43 41.163,-34.826 53.705,-53.808 12.632,-19.032 20.01,-37.802 24.414,-53.55 0.234,-0.83 0.454,-1.647 0.673,-2.461 l 11.86,1.288 c -0.181,0.674 -0.356,1.344 -0.548,2.027 -4.599,16.611 -12.31,36.425 -25.596,56.554 -13.175,20.09 -31.852,40.574 -56.518,57.1 -12.327,8.214 -26.081,15.417 -41.018,21.082 -14.923,5.696 -31.111,9.532 -47.964,11.517 -4.222,0.542 -8.355,0.715 -12.62,1.066 -2.222,0.057 -4.447,0.113 -6.683,0.172 l -3.359,0.084 -3.105,-0.07 c -0.398,-0.009 -0.8,-0.02 -1.197,-0.029 l -5.239,-9.884 c 1.562,0.049 3.122,0.1 4.677,0.151 1.091,0.023 1.898,0.079 3.22,0.08"
           style="fill:#f8c260;fill-opacity:1;fill-rule:nonzero;stroke:none"
           id="path95345"
           inkscape:connector-curvature="0" /><path
           d="m 393.155,79.15 -0.475,1.459 -5.836,17.889 c -20.374,-5.992 -41.92,-9.223 -64.209,-9.223 -66.634,0 -126.677,28.748 -168.385,74.49 l -10.715,-16.08 -2.931,-4.398 -1.606,-2.408 10.881,-9.896 16.879,-9.3 10.837,-17.271 16.084,-10.623 13.071,-17.257 20.564,-2.26 19.44,-3.136 20.076,1.51 15.751,-21.286 21.047,12.199 19.007,-2.579 18.766,5.833 20.806,-12.264 17.008,14.679 15.046,6.533 h -0.001 z"
           style="fill:#42210b;fill-opacity:1;fill-rule:nonzero;stroke:none"
           id="path95347"
           inkscape:connector-curvature="0" /><path
           d="m 587.184,320.042 0.395,0.994 -2.697,19.649 -15.916,17.483 -1.693,10.612 0.002,-0.019 -3.332,-0.22 -18.979,-1.253 c 3.636,-16.133 5.566,-32.904 5.566,-50.12 0,-101.735 -67.012,-188.104 -159.211,-217.309 l 7.105,-17.469 1.159,-2.844 1.891,-4.65 19.369,-7.969 18.426,8.039 13.955,15.981 19.905,5.479 3.364,13.23 c -0.28,0.217 -0.548,0.447 -0.81,0.685 -2.712,2.454 -4.499,5.901 -4.785,9.773 -0.026,0.36 -0.055,0.72 -0.055,1.084 0,8.094 6.562,14.653 14.656,14.653 1.285,0 2.523,-0.181 3.712,-0.492 2.143,-0.56 4.097,-1.583 5.737,-2.97 0.888,-0.75 1.675,-1.607 2.363,-2.543 l 14.812,11.502 15.558,12.305 1.452,22.752 21.369,9.209 -0.504,3.655 0.504,0.217 -2.736,19.826 19.804,11.734 -0.466,3.596 0.466,0.274 -2.569,19.871 1.467,16.734 16.946,16.35 -0.576,3.312 0.576,0.557 -3.013,17.327 7.178,18.101 z"
           style="fill:#42210b;fill-opacity:1;fill-rule:nonzero;stroke:none"
           id="path95349"
           inkscape:connector-curvature="0" /><path
           d="m 310.474,563.569 10.509,-18.527 c 0.552,0.003 1.1,0.021 1.652,0.021 106.921,0 196.861,-74.016 221.316,-173.495 l 18.863,2.051 3.624,0.394 0.091,0.008 7.977,20.829 -0.463,2.66 0.463,1.209 -3.45,19.807 -10.96,16.851 -5.648,19.491 -25.538,6.769 -0.679,23.348 -23.276,5.204 -6.937,19.861 -10.19,7.926 c -2.686,-3.237 -6.739,-5.298 -11.274,-5.298 -1.622,0 -3.178,0.274 -4.636,0.761 -2.936,0.979 -5.451,2.861 -7.232,5.32 -1.748,2.411 -2.787,5.368 -2.787,8.573 0,3.648 1.342,6.977 3.546,9.541 l -12.523,9.846 -14.547,14.658 -20.342,2.754 -17.255,10.263 -18.699,7.127 -21.09,-5.99 -18.919,4.882 -19.435,7.76 -16.339,-17.28 0.029,-0.008 z"
           style="fill:#42210b;fill-opacity:1;fill-rule:nonzero;stroke:none"
           id="path95351"
           inkscape:connector-curvature="0" /><path
           d="m 89.852,431.514 11.138,-6.092 16.51,-9.032 c 35.75,73.609 109.972,125.196 196.359,128.486 l -10.115,18.279 -5.536,10.001 -15.384,12.07 -15.928,-19.955 -19.488,-0.307 -21.37,2.226 -17.274,-9.664 -10.84,-20.413 -23.506,1.338 -12.258,-16.162 -13.36,-13.891 -6.06,-7.672 c 2.203,-2.565 3.542,-5.892 3.542,-9.535 0,-0.619 -0.051,-1.225 -0.126,-1.823 -0.77,-6.186 -5.384,-11.172 -11.385,-12.485 -1.014,-0.222 -2.063,-0.347 -3.144,-0.347 -3.938,0 -7.504,1.561 -10.139,4.089 l -16.472,-11.221 -14.438,-14.385 -1.71,-12.064 c 1.092,-2.052 1.717,-4.392 1.717,-6.879 0,-1.595 -0.263,-3.125 -0.733,-4.562"
           style="fill:#42210b;fill-opacity:1;fill-rule:nonzero;stroke:none"
           id="path95353"
           inkscape:connector-curvature="0" /><path
           d="m 94.741,317.168 c 0,34.885 7.889,67.959 21.96,97.547 l -17.312,7.375 -11.861,5.052 c -2.679,-3.473 -6.871,-5.721 -11.597,-5.721 -0.056,0 -0.11,0.009 -0.165,0.009 l -2.386,-2.568 -1.821,-20.385 0.281,-0.725 -0.281,-3.145 7.838,-20.219 -5.755,-15.82 -0.767,-18.81 -16.395,-18.722 1.201,-2.498 -1.201,-1.37 9.242,-19.249 7.891,-17.18 -2.879,-17.186 0.494,-0.919 -0.494,-2.951 7.912,-14.696 c 0.043,0 0.086,0.006 0.13,0.006 0.537,0 1.067,-0.034 1.589,-0.089 2.731,-0.295 5.229,-1.348 7.299,-2.933 3.498,-2.679 5.765,-6.886 5.765,-11.632 0,-1.172 -0.153,-2.306 -0.413,-3.399 -1.11,-4.669 -4.443,-8.465 -8.827,-10.212 l -0.176,-10.593 0.066,-0.041 -0.065,-3.826 18.792,-11.986 8.982,-16.839 1.545,-23.182 16.41,-4.721 2.498,3.152 4.83,6.093 11.892,15 c -33.796,39.767 -54.222,91.23 -54.222,147.383"
           style="fill:#42210b;fill-opacity:1;fill-rule:nonzero;stroke:none"
           id="path95355"
           inkscape:connector-curvature="0" /><path
           d="m 324.234,518.407 3.359,-0.084 c 2.236,-0.058 4.461,-0.115 6.683,-0.172 4.265,-0.35 8.398,-0.524 12.62,-1.066 16.853,-1.985 33.041,-5.821 47.964,-11.517 14.937,-5.665 28.691,-12.868 41.018,-21.082 24.667,-16.525 43.343,-37.009 56.518,-57.1 13.286,-20.129 20.997,-39.943 25.596,-56.554 0.192,-0.683 0.367,-1.353 0.548,-2.027 l 13.419,1.459 c -0.35,1.356 -0.71,2.724 -1.1,4.121 -4.915,17.719 -13.158,38.854 -27.325,60.312 -14.056,21.412 -33.962,43.23 -60.262,60.834 -13.144,8.753 -27.811,16.43 -43.741,22.461 -15.923,6.065 -33.186,10.159 -51.152,12.264 -4.475,0.573 -9.18,0.786 -13.769,1.141 -2.217,0.056 -4.45,0.111 -6.684,0.168 l -0.958,0.023 -7.036,-13.28 c 0.397,0.01 0.799,0.02 1.197,0.029 z"
           style="fill:#824c20;fill-opacity:1;fill-rule:nonzero;stroke:none"
           id="path95357"
           inkscape:connector-curvature="0" /><path
           d="m 443.272,138.805 c 26.3,17.603 46.206,39.42 60.262,60.836 14.167,21.456 22.41,42.59 27.325,60.31 4.957,17.82 6.545,32.163 7.201,42.206 0.472,5.081 0.374,8.582 0.487,11.094 0.062,2.472 0.097,3.749 0.097,3.749 v 0.168 c 0,0 -0.031,1.314 -0.097,3.864 -0.111,2.546 -0.025,6.338 -0.492,11.253 -0.545,8.329 -1.785,20.019 -5.162,34.208 L 519.371,365.6 c 3.565,-14.279 4.822,-26.006 5.353,-34.244 0.446,-4.612 0.349,-8.172 0.459,-10.562 0.059,-2.299 0.09,-3.518 0.093,-3.609 -0.009,-0.389 -0.043,-1.59 -0.093,-3.594 -0.105,-2.421 -0.025,-6.271 -0.464,-10.717 -0.584,-9.014 -2.089,-22.757 -6.727,-39.37 -4.599,-16.61 -12.316,-36.427 -25.596,-56.554 -13.179,-20.09 -31.852,-40.573 -56.518,-57.098 -12.327,-8.215 -26.081,-15.419 -41.018,-21.084 -4.38,-1.673 -8.882,-3.165 -13.465,-4.517 l 5.027,-12.355 c 4.455,1.342 8.834,2.816 13.109,4.444 15.93,6.035 30.596,13.712 43.741,22.465"
           style="fill:#824c20;fill-opacity:1;fill-rule:nonzero;stroke:none"
           id="path95359"
           inkscape:connector-curvature="0" /><path
           d="m 334.119,116.178 c -2.152,-0.053 -4.309,-0.11 -6.475,-0.164 l -3.252,-0.085 -3.19,0.068 c -2.25,0.055 -4.505,0.11 -6.767,0.168 -2.236,0.085 -4.33,0.314 -6.51,0.459 -4.303,0.225 -8.726,0.904 -13.145,1.439 -8.799,1.388 -17.666,3.096 -26.383,5.716 -4.406,1.139 -8.689,2.752 -13.048,4.186 -2.138,0.832 -4.28,1.672 -6.429,2.509 l -3.22,1.268 -3.16,1.432 c -25.151,11.073 -48.566,27.881 -67.769,49.085 l -11.266,-4.609 -0.965,-1.447 c 20.89,-23.9 46.742,-42.807 74.64,-55.106 l 3.369,-1.523 3.432,-1.358 c 2.289,-0.893 4.559,-1.824 6.853,-2.673 4.645,-1.539 9.214,-3.25 13.909,-4.473 9.295,-2.79 18.747,-4.626 28.126,-6.101 4.72,-0.579 9.36,-1.291 14.158,-1.554 2.358,-0.159 4.786,-0.402 7.072,-0.487 2.263,-0.058 4.518,-0.114 6.767,-0.174 l 3.547,-0.07 3.462,0.085 c 2.304,0.058 4.604,0.118 6.895,0.173 4.567,0.362 9.122,0.565 13.609,1.136 11.85,1.388 23.383,3.66 34.436,6.775 l -4.116,12.618 c -10.215,-2.85 -20.866,-4.932 -31.803,-6.222 -4.212,-0.544 -8.491,-0.724 -12.777,-1.071"
           style="fill:#824c20;fill-opacity:1;fill-rule:nonzero;stroke:none"
           id="path95361"
           inkscape:connector-curvature="0" /><path
           d="m 142,231.341 c -4.233,8.834 -7.639,18.072 -10.577,27.457 -2.899,9.411 -4.911,19.085 -6.454,28.831 -1.443,9.77 -2.052,19.652 -2.184,29.539 0.174,4.719 0.121,10.251 0.611,14.905 0.268,4.825 0.94,9.735 1.573,14.633 1.543,9.747 3.555,19.422 6.454,28.832 2.937,9.384 6.344,18.621 10.577,27.458 4.259,8.812 8.962,17.394 14.39,25.473 21.516,32.471 52.265,57.774 86.151,72.692 l 3.159,1.432 3.22,1.268 c 2.147,0.839 4.29,1.675 6.429,2.51 4.359,1.43 8.642,3.045 13.049,4.184 8.715,2.619 17.583,4.331 26.382,5.714 4.425,0.537 8.811,1.215 13.218,1.448 2.198,0.146 4.386,0.377 6.576,0.456 0.083,0.003 0.166,0.006 0.249,0.007 l 5.235,13.378 c -2.029,-0.053 -4.058,-0.105 -6.1,-0.157 -2.332,-0.086 -4.663,-0.327 -7.006,-0.486 -4.693,-0.257 -9.368,-0.968 -14.082,-1.551 -9.38,-1.472 -18.832,-3.312 -28.126,-6.099 -4.697,-1.225 -9.265,-2.934 -13.911,-4.472 -2.293,-0.849 -4.562,-1.782 -6.852,-2.673 l -3.433,-1.359 -3.368,-1.522 c -36.119,-15.925 -68.846,-42.881 -91.756,-77.477 -5.632,-8.397 -10.538,-17.301 -14.98,-26.452 l 3.727,-2.038 -3.909,1.666 c -0.052,-0.11 -0.106,-0.216 -0.159,-0.325 -4.505,-9.419 -8.141,-19.264 -11.263,-29.269 -3.082,-10.031 -5.234,-20.343 -6.865,-30.727 -0.675,-5.211 -1.387,-10.409 -1.684,-15.78 -0.523,-5.504 -0.442,-10.192 -0.629,-15.669 0.129,-10.519 0.78,-21.04 2.313,-31.449 1.631,-10.384 3.783,-20.694 6.865,-30.726 3.123,-10.008 6.76,-19.85 11.263,-29.27 4.53,-9.396 9.546,-18.538 15.322,-27.146 3.955,-5.974 8.222,-11.701 12.728,-17.2 l 0.618,0.78 0.709,0.888 0.811,0.245 10.71,3.272 c -5.226,6.111 -10.129,12.542 -14.611,19.304 -5.427,8.081 -10.13,16.659 -14.39,25.475"
           style="fill:#824c20;fill-opacity:1;fill-rule:nonzero;stroke:none"
           id="path95363"
           inkscape:connector-curvature="0" /><path
           d="m 330.971,142.449 c -3.749,-0.059 -7.656,-0.381 -11.35,-0.238 -1.983,0.036 -3.972,0.071 -5.967,0.107 -1.971,0.061 -3.806,0.247 -5.726,0.362 -3.781,0.173 -7.678,0.742 -11.57,1.187 -7.75,1.169 -15.571,2.618 -23.264,4.871 -3.891,0.976 -7.673,2.372 -11.526,3.611 l -5.681,2.168 c -1.908,0.699 -3.788,1.486 -5.642,2.342 -14.993,6.477 -29.291,15.266 -42.296,25.976 -3.415,2.835 -6.724,5.821 -9.931,8.929 l -10.757,-4.399 c 16.913,-17.429 36.89,-31.439 58.296,-41.07 1.963,-0.939 3.955,-1.799 5.978,-2.579 2.012,-0.801 4.023,-1.6 6.027,-2.399 4.086,-1.379 8.107,-2.913 12.241,-4.021 8.185,-2.514 16.515,-4.192 24.787,-5.546 4.165,-0.54 8.256,-1.194 12.496,-1.452 2.086,-0.157 4.234,-0.386 6.252,-0.473 1.993,-0.062 3.981,-0.129 5.964,-0.191 4.236,-0.205 8.212,0.068 12.294,0.087 4.038,0.292 8.069,0.444 12.042,0.924 10.591,1.169 20.91,3.143 30.803,5.879 l -4.132,12.67 c -9.016,-2.597 -18.432,-4.515 -28.121,-5.727 -3.694,-0.501 -7.452,-0.685 -11.217,-1.018"
           style="fill:#824c20;fill-opacity:1;fill-rule:nonzero;stroke:none"
           id="path95365"
           inkscape:connector-curvature="0" /><path
           d="m 427.888,160.869 c 23.466,15.433 41.163,34.829 53.706,53.806 12.631,19.037 20.009,37.804 24.413,53.554 4.449,15.849 5.891,28.565 6.5,37.547 0.43,4.56 0.347,7.603 0.455,9.831 0.06,2.179 0.093,3.302 0.093,3.302 l 0.002,0.195 c 0,0 -0.033,1.169 -0.095,3.436 -0.106,2.265 -0.038,5.637 -0.463,10.012 -0.528,7.764 -1.741,18.813 -5.119,32.256 l -15.28,-1.007 c 3.555,-13.568 4.733,-24.661 5.203,-32.31 0.38,-4.027 0.287,-7.136 0.377,-9.221 0.048,-2.002 0.072,-3.064 0.076,-3.149 -0.011,-0.389 -0.033,-1.434 -0.073,-3.126 -0.09,-2.122 -0.008,-5.56 -0.387,-9.401 -0.481,-7.812 -1.767,-19.858 -5.778,-34.366 -3.981,-14.517 -10.67,-31.845 -22.239,-49.471 -11.463,-17.607 -27.782,-35.502 -49.241,-50.158 -10.748,-7.267 -22.752,-13.664 -35.816,-18.724 -4.242,-1.655 -8.613,-3.12 -13.076,-4.43 l 5.054,-12.424 c 4.347,1.25 8.623,2.632 12.781,4.186 14.148,5.252 27.197,11.973 38.907,19.662"
           style="fill:#824c20;fill-opacity:1;fill-rule:nonzero;stroke:none"
           id="path95367"
           inkscape:connector-curvature="0" /><path
           d="m 173.863,220.683 c -4.817,7.13 -8.997,14.711 -12.786,22.497 -3.764,7.806 -6.799,15.973 -9.422,24.271 -2.585,8.321 -4.391,16.88 -5.778,25.503 -1.299,8.591 -1.86,17.522 -2.002,26.025 0.148,9.174 0.703,17.547 2.002,26.275 1.388,8.622 3.193,17.182 5.778,25.503 2.623,8.298 5.658,16.463 9.422,24.27 3.789,7.787 7.969,15.366 12.786,22.497 9.587,14.284 21.123,27.083 34.086,37.85 13.005,10.706 27.304,19.495 42.296,25.973 1.853,0.858 3.733,1.642 5.643,2.342 l 5.681,2.171 c 3.853,1.236 7.636,2.63 11.524,3.608 7.693,2.253 15.514,3.705 23.265,4.87 3.9,0.445 7.761,1.015 11.639,1.192 1.938,0.115 3.862,0.304 5.789,0.362 1.703,0.029 3.401,0.06 5.094,0.091 l -9.167,6.443 -0.827,0.58 0.419,1.073 1.619,4.14 c -1.299,-0.102 -2.602,-0.218 -3.906,-0.313 -4.142,-0.255 -8.269,-0.91 -12.427,-1.451 -8.274,-1.355 -16.604,-3.032 -24.786,-5.546 -4.135,-1.105 -8.158,-2.639 -12.243,-4.023 -2.004,-0.797 -4.015,-1.596 -6.027,-2.397 -2.023,-0.776 -4.015,-1.641 -5.978,-2.578 -31.729,-14.272 -60.347,-38.142 -80.45,-68.563 -5.058,-7.58 -9.447,-15.626 -13.408,-23.892 -3.937,-8.287 -7.111,-16.942 -9.831,-25.738 -2.686,-8.819 -4.552,-17.879 -5.964,-26.998 -1.324,-9.064 -1.88,-18.678 -1.96,-27.491 0.087,-9.483 0.638,-18.541 1.96,-27.742 1.412,-9.12 3.278,-18.177 5.964,-26.999 2.72,-8.796 5.894,-17.451 9.831,-25.738 3.961,-8.265 8.35,-16.312 13.408,-23.892 5.715,-8.646 12.139,-16.742 19.103,-24.261 l 11.468,3.5 c -8.04,8.089 -15.376,16.991 -21.815,26.586"
           style="fill:#824c20;fill-opacity:1;fill-rule:nonzero;stroke:none"
           id="path95369"
           inkscape:connector-curvature="0" /><path
           d="m 325.23,495.94 c 1.97,-0.062 3.933,-0.127 5.892,-0.189 3.745,-0.336 7.36,-0.512 11.066,-1.013 14.798,-1.851 28.98,-5.318 42.034,-10.405 13.064,-5.06 25.068,-11.456 35.816,-18.724 21.459,-14.655 37.779,-32.553 49.241,-50.159 11.569,-17.628 18.258,-34.956 22.239,-49.473 0.009,-0.037 0.016,-0.07 0.026,-0.105 l 15.136,1.645 c -0.219,0.814 -0.439,1.631 -0.673,2.461 -4.404,15.747 -11.782,34.518 -24.414,53.55 -12.542,18.982 -30.239,38.378 -53.705,53.808 -11.71,7.69 -24.759,14.41 -38.907,19.662 -14.137,5.279 -29.442,8.805 -45.343,10.564 -3.963,0.479 -8.137,0.644 -12.193,0.93 -1.959,0.035 -3.924,0.071 -5.895,0.107 l -2.961,0.056 c -1.321,-10e-4 -2.127,-0.057 -3.219,-0.08 -1.554,-0.051 -3.116,-0.102 -4.677,-0.152 l -2.426,-4.581 9.277,-7.816 0.727,0.012 z"
           style="fill:#824c20;fill-opacity:1;fill-rule:nonzero;stroke:none"
           id="path95371"
           inkscape:connector-curvature="0" /><path
           d="m 196.526,238.947 c -16.398,23.575 -25.86,52.581 -26.323,82.091 -0.584,29.497 7.85,59.161 23.733,83.812 15.727,24.785 38.85,44.17 64.404,55.802 25.624,11.617 53.561,15.527 79.236,12.563 25.763,-2.775 49.01,-12.456 67.453,-25.243 18.56,-12.775 32.391,-28.548 41.99,-43.896 4.826,-7.682 8.677,-15.263 11.626,-22.509 2.675,-6.574 4.854,-12.778 6.374,-18.579 l 11.291,1.227 c -0.003,0.005 -0.003,0.01 -0.005,0.016 -3.904,13.322 -10.386,29.153 -21.349,45.052 -10.886,15.864 -26.072,31.905 -45.838,44.798 -9.883,6.425 -20.923,11.892 -32.773,16.362 -11.872,4.436 -24.714,7.415 -38.065,9.03 -3.329,0.43 -6.786,0.588 -10.192,0.858 -1.673,0.043 -3.347,0.089 -5.029,0.133 l -2.525,0.066 -2.658,-0.035 c -3.453,-0.036 -6.926,-0.117 -10.409,-0.425 -3.493,-0.164 -6.976,-0.672 -10.489,-1.08 -6.988,-1.049 -14.038,-2.368 -20.977,-4.398 -3.504,-0.888 -6.916,-2.138 -10.387,-3.259 -3.394,-1.331 -6.876,-2.508 -10.21,-4.073 -13.523,-5.821 -26.466,-13.656 -38.234,-23.273 -11.737,-9.654 -22.292,-21.066 -31.159,-33.864 -17.759,-25.592 -27.988,-57.135 -28.436,-89.085 -0.597,-31.935 8.606,-64.142 25.847,-90.807 6.493,-10.199 14.142,-19.544 22.648,-27.91 l 11.937,11.835 c -7.935,7.407 -15.172,15.718 -21.481,24.791"
           style="fill:#824c20;fill-opacity:1;fill-rule:nonzero;stroke:none"
           id="path95373"
           inkscape:connector-curvature="0" /><path
           d="m 263.72,165.529 c 3.574,-1.208 7.096,-2.547 10.711,-3.513 7.16,-2.199 14.448,-3.664 21.685,-4.847 3.645,-0.477 7.203,-1.041 10.972,-1.275 1.833,-0.138 3.772,-0.332 5.506,-0.41 1.701,-0.053 3.397,-0.108 5.09,-0.161 l 2.785,-0.073 2.675,0.064 c 1.783,0.041 3.556,0.088 5.328,0.132 3.528,0.27 7.05,0.427 10.518,0.866 13.898,1.583 27.239,4.82 39.509,9.587 12.312,4.677 23.51,10.859 33.556,17.71 20.106,13.81 35.096,30.856 45.521,47.465 5.24,8.311 9.426,16.522 12.637,24.37 3.213,7.837 5.761,15.211 7.429,22.034 3.555,13.64 4.587,24.518 4.969,32.192 0.297,3.891 0.174,6.487 0.229,8.391 0.019,1.859 0.026,2.818 0.026,2.818 l 0.002,0.16 c 0,0 -0.04,0.996 -0.117,2.928 -0.118,1.929 -0.097,4.798 -0.507,8.519 -0.581,7.16 -1.893,17.596 -5.524,30.298 l -11.454,-0.755 c 0.064,-0.262 0.139,-0.53 0.202,-0.791 3.263,-12.539 4.21,-22.71 4.537,-29.605 0.275,-3.448 0.157,-6.106 0.211,-7.89 0.012,-1.487 0.019,-2.365 0.021,-2.62 -0.009,-0.246 -0.049,-1.167 -0.113,-2.741 -0.113,-1.81 -0.097,-4.741 -0.485,-8.015 -0.548,-6.659 -1.85,-16.899 -5.505,-29.16 -3.617,-12.27 -9.607,-26.849 -19.738,-41.485 -10.057,-14.604 -24.081,-29.373 -42.302,-41.232 -9.115,-5.908 -19.286,-10.92 -30.191,-15.035 -10.925,-4.082 -22.745,-6.806 -35.037,-8.302 -3.071,-0.4 -6.195,-0.535 -9.322,-0.792 -3.098,-0.035 -6.407,-0.263 -9.383,-0.153 -1.69,0.028 -3.388,0.06 -5.089,0.091 -1.668,0.052 -3.129,0.208 -4.712,0.303 -3.075,0.131 -6.332,0.612 -9.558,0.978 -6.433,0.971 -12.926,2.169 -19.309,4.038 -3.229,0.813 -6.367,1.972 -9.566,2.994 -3.118,1.232 -6.331,2.297 -9.397,3.747 -12.456,5.346 -24.387,12.552 -35.243,21.402 -2.437,2.004 -4.811,4.098 -7.135,6.26 l -10.82,-12.903 c 13.57,-13.069 29.238,-23.675 45.884,-31.235 3.427,-1.662 7.008,-2.932 10.504,-4.354"
           style="fill:#824c20;fill-opacity:1;fill-rule:nonzero;stroke:none"
           id="path95375"
           inkscape:connector-curvature="0" /><path
           d="m 440.544,348.916 c 0.521,-2.329 0.75,-4.565 1.107,-6.619 0.324,-2.06 0.622,-3.966 0.898,-5.711 0.264,-1.748 0.222,-3.366 0.337,-4.799 0.291,-5.291 0.454,-8.303 0.478,-8.749 -0.036,-0.699 -0.202,-3.772 -0.482,-8.963 -0.116,-1.462 -0.085,-3.197 -0.353,-4.921 -0.272,-1.714 -0.569,-3.585 -0.892,-5.609 -0.355,-2.023 -0.574,-4.2 -1.093,-6.514 -0.606,-2.311 -1.245,-4.767 -1.925,-7.363 -2.953,-10.256 -7.527,-22.675 -16.051,-34.988 -8.333,-12.322 -19.938,-24.978 -35.359,-34.864 -15.391,-9.832 -34.309,-16.94 -54.982,-19.051 -2.568,-0.365 -5.204,-0.239 -7.824,-0.391 l -3.952,-0.133 -1.981,-0.07 -1.748,0.113 c -5.525,0.437 -11.486,0.517 -16.453,1.67 -2.602,0.514 -5.198,0.76 -7.836,1.462 -2.637,0.729 -5.286,1.462 -7.949,2.197 -2.7,0.601 -5.229,1.795 -7.838,2.753 l -3.902,1.503 -1.954,0.753 -1.877,0.95 c -2.503,1.257 -5.015,2.525 -7.538,3.798 -2.508,1.291 -4.812,2.973 -7.243,4.439 l -3.611,2.272 c -1.148,0.84 -2.257,1.745 -3.392,2.613 -2.229,1.79 -4.587,3.431 -6.733,5.337 -8.679,7.556 -16.302,16.414 -22.832,26.099 -1.489,2.511 -2.98,5.03 -4.473,7.548 -0.366,0.635 -0.767,1.25 -1.109,1.898 l -0.928,1.993 -1.867,3.986 -1.905,3.973 c -0.594,1.338 -1.02,2.755 -1.54,4.128 -0.956,2.779 -2.098,5.508 -2.924,8.333 l -2.17,8.581 -0.544,2.145 -0.319,2.193 -0.649,4.386 -0.661,4.383 c -0.271,1.457 -0.185,2.953 -0.297,4.425 l -0.208,4.438 -0.106,2.217 -0.056,1.108 -0.028,0.554 -0.014,0.277 c -0.006,-0.069 -0.003,0.205 -0.009,0.205 l 0.431,9.139 c 0.121,1.533 0.051,3.287 0.322,4.64 l 0.659,4.219 0.632,4.222 0.304,2.115 0.543,2.142 2.17,8.58 c 0.826,2.825 1.968,5.551 2.924,8.333 0.52,1.374 0.946,2.788 1.54,4.129 l 1.905,3.974 1.867,3.984 0.928,1.994 c 0.342,0.648 0.743,1.263 1.109,1.895 1.493,2.521 2.984,5.039 4.473,7.551 6.53,9.684 14.153,18.542 22.832,26.098 2.146,1.906 4.504,3.547 6.733,5.335 1.135,0.87 2.244,1.774 3.392,2.615 l 3.611,2.273 c 2.431,1.466 4.735,3.146 7.243,4.441 2.523,1.27 5.035,2.536 7.538,3.795 10.227,4.509 20.786,8.174 31.549,9.644 5.322,1.168 10.719,1.194 16.018,1.636 l 0.997,0.069 0.497,0.035 0.248,0.017 c 0.019,0.002 0.026,0.003 0.024,0.004 l 1.989,-0.068 c 1.393,-0.046 2.779,-0.093 4.159,-0.141 1.382,-0.046 2.759,-0.092 4.134,-0.139 1.367,-0.053 2.783,-0.043 3.984,-0.277 2.505,-0.343 4.991,-0.686 7.46,-1.024 1.237,-0.193 2.472,-0.268 3.708,-0.548 1.232,-0.298 2.465,-0.593 3.693,-0.889 2.46,-0.584 4.902,-1.165 7.324,-1.74 2.365,-0.758 4.685,-1.613 7.006,-2.401 4.719,-1.402 9.001,-3.66 13.33,-5.596 2.202,-0.9 4.18,-2.176 6.196,-3.34 2.015,-1.173 4.006,-2.336 5.98,-3.484 15.421,-9.891 27.026,-22.547 35.359,-34.866 8.524,-12.313 13.098,-24.732 16.051,-34.988 0.68,-2.594 1.319,-5.051 1.925,-7.363 m -47.395,86.092 c -2.098,1.323 -4.217,2.659 -6.358,4.009 -2.154,1.339 -4.274,2.787 -6.632,3.858 -4.635,2.28 -9.255,4.875 -14.349,6.602 -2.512,0.949 -5.029,1.961 -7.603,2.876 -2.634,0.724 -5.29,1.454 -7.966,2.189 -1.341,0.366 -2.684,0.733 -4.036,1.102 -1.358,0.353 -2.81,0.515 -4.224,0.781 -2.849,0.472 -5.723,0.948 -8.613,1.428 -1.483,0.296 -2.815,0.325 -4.19,0.426 -1.37,0.092 -2.746,0.184 -4.125,0.277 -1.381,0.094 -2.763,0.185 -4.153,0.279 l -2.087,0.14 c 0.21,-0.004 -0.578,0.028 -0.599,0.02 l -0.276,-0.01 -0.549,-0.016 -1.1,-0.038 c -5.874,-0.263 -11.866,-0.145 -17.825,-1.214 -12.031,-1.269 -23.984,-4.91 -35.641,-9.622 -2.861,-1.325 -5.734,-2.654 -8.618,-3.99 -2.868,-1.372 -5.536,-3.145 -8.328,-4.718 l -4.156,-2.445 c -1.329,-0.904 -2.619,-1.872 -3.934,-2.811 -2.591,-1.924 -5.31,-3.718 -7.814,-5.793 -10.076,-8.277 -18.911,-18.206 -26.569,-29.103 -7.484,-11.048 -13.204,-23.345 -17.34,-36.209 l -2.563,-9.817 -0.627,-2.463 -0.411,-2.588 -0.804,-5.183 -0.778,-5.19 c -0.306,-1.777 -0.232,-3.222 -0.367,-4.851 l -0.513,-9.511 c -0.017,-1.004 0.004,-0.461 0.004,-0.768 l 0.016,-0.316 0.033,-0.635 0.066,-1.271 0.13,-2.539 0.275,-5.078 c 0.141,-1.686 0.085,-3.392 0.391,-5.064 l 0.776,-5.025 0.787,-5.021 0.396,-2.509 0.626,-2.461 2.563,-9.814 c 4.136,-12.865 9.856,-25.162 17.34,-36.212 7.658,-10.893 16.493,-20.823 26.569,-29.102 2.504,-2.074 5.223,-3.867 7.814,-5.792 1.315,-0.938 2.605,-1.906 3.934,-2.81 l 4.156,-2.446 c 2.792,-1.574 5.46,-3.347 8.328,-4.719 2.884,-1.335 5.757,-2.666 8.618,-3.988 11.744,-4.724 23.413,-8.328 35.836,-9.65 6.311,-1.086 11.743,-0.912 17.39,-1.182 l 1.049,-0.032 0.523,-0.019 0.263,-0.01 c 0.012,-0.005 0.812,-0.007 0.605,0.003 l 2.193,0.141 c 1.46,0.094 2.911,0.191 4.361,0.286 2.891,0.257 5.784,0.241 8.61,0.728 22.735,3.073 43.167,11.595 59.496,22.822 16.295,11.368 28.609,25.117 37.284,38.579 8.815,13.453 13.674,26.759 16.769,37.778 0.705,2.786 1.373,5.423 2.002,7.905 0.544,2.514 0.795,4.968 1.161,7.201 0.331,2.242 0.635,4.319 0.911,6.222 0.267,1.896 0.218,3.506 0.325,5.011 0.282,5.946 0.429,9.117 0.429,9.117 l 0.007,0.221 c 0,0 -0.154,3.275 -0.441,9.421 -0.112,1.534 -0.071,3.262 -0.335,5.135 -0.278,1.869 -0.579,3.913 -0.908,6.118 -0.367,2.202 -0.608,4.598 -1.149,7.097 -0.629,2.48 -1.297,5.119 -2.002,7.905 -0.197,0.707 -0.402,1.422 -0.617,2.146 l -4.417,-0.292 4.361,0.475 c -3.12,10.539 -7.893,22.93 -16.093,35.45 -8.678,13.461 -20.992,27.209 -37.287,38.579"
           style="fill:#824c20;fill-opacity:1;fill-rule:nonzero;stroke:none"
           id="path95377"
           inkscape:connector-curvature="0" /><path
           d="m 413.869,314.017 c -0.216,-1.337 -0.451,-2.8 -0.707,-4.381 -0.275,-1.58 -0.446,-3.279 -0.851,-5.09 -0.478,-1.815 -0.983,-3.742 -1.515,-5.778 -2.324,-8.048 -5.913,-17.795 -12.616,-27.448 -6.549,-9.657 -15.669,-19.584 -27.78,-27.309 -12.084,-7.685 -26.923,-13.223 -43.126,-14.847 -2.011,-0.281 -4.078,-0.176 -6.129,-0.291 l -3.097,-0.1 -1.552,-0.052 -1.33,0.093 c -4.365,0.35 -9.128,0.427 -12.957,1.339 -2.026,0.406 -4.037,0.599 -6.099,1.154 -2.063,0.574 -4.136,1.155 -6.219,1.731 -2.113,0.477 -4.091,1.415 -6.13,2.17 l -3.052,1.182 -1.529,0.59 -1.465,0.747 c -1.958,0.993 -3.922,1.985 -5.894,2.984 -1.958,1.016 -3.758,2.338 -5.658,3.486 l -2.822,1.782 -2.649,2.053 c -1.738,1.406 -3.583,2.691 -5.258,4.186 -6.779,5.922 -12.731,12.854 -17.826,20.432 l -3.49,5.906 c -0.623,0.965 -1.129,1.992 -1.588,3.044 l -1.454,3.117 -1.49,3.105 c -0.462,1.05 -0.794,2.155 -1.203,3.228 -0.743,2.174 -1.637,4.304 -2.281,6.513 l -1.691,6.708 -0.426,1.676 -0.248,1.716 -0.506,3.425 c -0.35,2.286 -0.747,4.565 -0.747,6.888 l -0.158,3.466 -0.085,1.734 -0.042,0.866 -0.021,0.434 -0.013,0.216 c -0.005,-0.067 -0.002,0.126 -0.005,0.158 l 0.337,7.175 c 0.093,1.208 0.04,2.619 0.253,3.661 l 0.512,3.272 0.488,3.274 0.235,1.64 0.426,1.675 1.691,6.706 c 0.644,2.209 1.538,4.337 2.281,6.512 0.409,1.075 0.741,2.18 1.203,3.231 l 1.49,3.102 1.454,3.117 c 0.459,1.053 0.965,2.082 1.588,3.045 l 3.49,5.906 c 5.095,7.578 11.047,14.511 17.826,20.434 1.675,1.495 3.52,2.779 5.258,4.182 l 2.649,2.053 2.822,1.785 c 1.9,1.149 3.7,2.471 5.658,3.485 1.972,0.999 3.936,1.993 5.894,2.982 7.996,3.544 16.254,6.434 24.682,7.601 4.163,0.926 8.39,0.953 12.541,1.308 l 0.779,0.057 0.39,0.028 0.194,0.013 c 0.027,0.002 0.019,0.004 -0.002,0.005 l 1.541,-0.05 3.295,-0.105 c 2.14,-0.119 4.479,-0.032 6.412,-0.317 1.952,-0.266 3.889,-0.529 5.811,-0.79 0.97,-0.149 1.923,-0.202 2.894,-0.42 l 2.894,-0.69 c 1.928,-0.455 3.843,-0.905 5.742,-1.351 1.855,-0.592 3.675,-1.259 5.498,-1.872 7.31,-2.418 13.877,-6.013 20.014,-9.697 12.111,-7.728 21.231,-17.654 27.78,-27.312 6.703,-9.651 10.292,-19.399 12.616,-27.445 0.532,-2.038 1.037,-3.965 1.515,-5.778 0.408,-1.83 0.588,-3.585 0.868,-5.195 0.256,-1.618 0.492,-3.113 0.707,-4.483 0.208,-1.373 0.176,-2.641 0.267,-3.767 0.23,-4.193 0.362,-6.541 0.379,-6.855 -0.034,-0.595 -0.164,-3.009 -0.384,-7.066 -0.09,-1.154 -0.07,-2.542 -0.279,-3.889 m 7.956,27.403 c -0.289,1.759 -0.482,3.671 -0.914,5.667 -0.499,1.983 -1.032,4.089 -1.595,6.316 -2.47,8.802 -6.35,19.43 -13.377,30.185 -6.921,10.761 -16.751,21.747 -29.755,30.857 -6.621,4.341 -13.788,8.584 -21.838,11.6 -2.008,0.762 -4.018,1.577 -6.075,2.309 -2.106,0.584 -4.227,1.169 -6.368,1.761 l -3.227,0.886 c -1.086,0.283 -2.256,0.417 -3.389,0.631 -2.29,0.384 -4.597,0.768 -6.92,1.155 -2.336,0.391 -4.376,0.366 -6.601,0.569 l -3.289,0.227 -1.653,0.114 -0.531,0.018 -0.218,-0.007 -0.439,-0.013 -0.883,-0.027 c -4.695,-0.202 -9.49,-0.104 -14.26,-0.95 -9.628,-1.003 -19.2,-3.9 -28.535,-7.66 -2.293,-1.056 -4.594,-2.118 -6.905,-3.182 -2.298,-1.096 -4.436,-2.511 -6.673,-3.768 l -3.329,-1.954 -3.153,-2.243 c -2.078,-1.539 -4.257,-2.973 -6.264,-4.631 -8.076,-6.618 -15.158,-14.565 -21.3,-23.287 -6.003,-8.845 -10.594,-18.693 -13.907,-29 l -2.052,-7.863 -0.505,-1.973 -0.333,-2.084 -0.648,-4.174 -0.624,-4.181 c -0.245,-1.436 -0.187,-2.56 -0.293,-3.858 l -0.409,-7.53 c -0.017,-0.926 0.003,-0.404 0.001,-0.675 l 0.014,-0.256 0.026,-0.508 0.051,-1.017 0.107,-2.035 0.221,-4.067 c 0.049,-2.721 0.506,-5.401 0.936,-8.083 l 0.633,-4.023 0.32,-2.007 0.503,-1.971 2.052,-7.865 c 3.313,-10.305 7.904,-20.156 13.907,-28.998 6.142,-8.724 13.224,-16.671 21.3,-23.288 2.007,-1.66 4.186,-3.09 6.264,-4.632 l 3.153,-2.241 3.329,-1.957 c 2.237,-1.255 4.375,-2.67 6.673,-3.766 2.311,-1.066 4.612,-2.125 6.905,-3.182 9.419,-3.773 18.72,-6.634 28.722,-7.684 5.104,-0.863 9.363,-0.712 13.845,-0.916 l 0.83,-0.029 0.416,-0.013 0.208,-0.007 c -0.002,-0.005 0.749,-0.008 0.536,0.003 l 1.754,0.114 3.486,0.235 c 2.313,0.205 4.63,0.201 6.887,0.595 18.18,2.481 34.506,9.321 47.542,18.312 13.004,9.112 22.834,20.097 29.755,30.86 7.027,10.757 10.907,21.383 13.377,30.184 0.563,2.227 1.096,4.333 1.595,6.316 0.437,2.01 0.64,3.981 0.931,5.771 0.261,1.8 0.505,3.464 0.726,4.99 0.21,1.521 0.169,2.783 0.256,3.977 0.219,4.71 0.338,7.224 0.338,7.224 l 0.004,0.217 c 0,0 -0.119,2.618 -0.35,7.527 -0.088,1.222 -0.052,2.601 -0.264,4.097 -0.22,1.494 -0.463,3.125 -0.727,4.888"
           style="fill:#824c20;fill-opacity:1;fill-rule:nonzero;stroke:none"
           id="path95379"
           inkscape:connector-curvature="0" /><path
           d="m 314.416,254.896 c -39.672,0 -71.949,32.275 -71.949,71.948 0,39.672 32.277,71.948 71.949,71.948 39.673,0 71.95,-32.276 71.95,-71.948 0,-39.673 -32.277,-71.948 -71.95,-71.948 m 0,151.163 c -43.68,0 -79.216,-35.535 -79.216,-79.215 0,-43.68 35.536,-79.216 79.216,-79.216 43.681,0 79.219,35.536 79.219,79.216 0,43.68 -35.538,79.215 -79.219,79.215"
           style="fill:#824c20;fill-opacity:1;fill-rule:nonzero;stroke:none"
           id="path95381"
           inkscape:connector-curvature="0" /><path
           d="m 312.481,283.472 c -24.981,0 -45.305,20.326 -45.305,45.306 0,24.982 20.324,45.305 45.305,45.305 24.982,0 45.306,-20.323 45.306,-45.305 0,-24.98 -20.324,-45.306 -45.306,-45.306 m 0,97.335 c -28.687,0 -52.026,-23.341 -52.026,-52.029 0,-28.688 23.339,-52.027 52.026,-52.027 28.69,0 52.029,23.339 52.029,52.027 0,28.688 -23.339,52.029 -52.029,52.029"
           style="fill:#824c20;fill-opacity:1;fill-rule:nonzero;stroke:none"
           id="path95383"
           inkscape:connector-curvature="0" /><path
           d="m 327.639,331.926 c -0.02,-0.792 -0.033,-1.213 -0.033,-1.213 l 0.006,0.237 c 0,0 -0.06,-0.532 -0.172,-1.526 -0.036,-0.228 -0.05,-0.578 -0.108,-0.784 -0.058,-0.2 -0.118,-0.416 -0.183,-0.652 -0.086,-0.437 -0.283,-1.032 -0.549,-1.721 -0.53,-1.329 -1.292,-2.901 -2.566,-4.38 -1.253,-1.484 -2.905,-2.921 -4.909,-4.024 -2.002,-1.113 -4.321,-1.861 -6.852,-2.219 -0.564,-0.04 -1.136,-0.08 -1.716,-0.121 -0.887,0.024 -2.093,0.019 -2.422,0.121 -0.48,0.019 -1.146,0.158 -1.842,0.315 -0.673,0.157 -1.339,0.385 -2.001,0.632 -1.339,0.489 -2.621,1.204 -3.856,2.054 -1.203,0.897 -2.302,1.967 -3.333,3.152 -0.987,1.22 -1.787,2.61 -2.437,4.103 -0.267,0.764 -0.582,1.531 -0.741,2.343 -0.103,0.401 -0.22,0.805 -0.254,1.221 l -0.09,0.623 -0.046,0.312 -0.025,0.157 -0.011,0.079 -0.006,0.038 c -0.006,-0.091 0.001,0.265 -0.014,-0.195 -0.066,2.46 -0.043,3.473 0.297,5.317 0.382,1.67 0.955,3.321 1.787,4.858 1.661,3.09 4.375,5.551 7.424,7.117 1.555,0.712 3.163,1.31 4.816,1.559 0.816,0.197 1.648,0.207 2.466,0.292 0.549,0.035 1.815,-0.04 2.552,-0.106 2.937,-0.315 5.961,-1.628 8.095,-3.281 2.178,-1.699 3.68,-3.757 4.679,-5.67 1.018,-1.913 1.474,-3.732 1.749,-5.199 0.262,-1.476 0.32,-2.646 0.295,-3.439 m 9.34,-1.448 0.005,0.235 c 0,0 -0.065,0.644 -0.184,1.854 -0.042,0.601 -0.181,1.337 -0.368,2.194 -0.148,0.864 -0.419,1.832 -0.793,2.895 -0.743,2.108 -1.872,4.613 -3.767,7.03 -1.862,2.419 -4.379,4.8 -7.529,6.671 -3.198,1.886 -6.788,3.2 -11.145,3.756 -3.841,0.422 -8.529,0.071 -12.711,-1.707 -2.133,-0.841 -4.166,-2.022 -6.08,-3.44 -1.877,-1.464 -3.579,-3.207 -5.113,-5.143 -1.488,-1.974 -2.686,-4.203 -3.604,-6.582 -0.879,-2.238 -1.408,-5.485 -1.575,-7.291 l -0.03,-2.185 c -0.025,-0.653 0.039,-1.303 0.103,-1.955 0.075,-1.312 0.347,-2.599 0.611,-3.895 0.65,-2.553 1.622,-5.042 2.954,-7.336 2.663,-4.597 6.791,-8.225 11.43,-10.493 1.171,-0.54 2.37,-1.021 3.585,-1.395 1.201,-0.359 2.425,-0.699 3.865,-0.897 1.564,-0.273 2.272,-0.263 3.263,-0.356 l 0.175,-0.015 0.088,-0.008 0.429,-0.009 0.456,0.014 0.906,0.042 c 0.604,0.038 1.203,0.036 1.796,0.12 4.765,0.509 9.058,2.393 12.387,4.815 3.325,2.471 5.691,5.472 7.301,8.321 1.635,2.85 2.461,5.601 2.95,7.846 0.469,2.075 0.654,4.56 0.616,5.375 -0.013,1.003 -0.021,1.539 -0.021,1.539"
           style="fill:#824c20;fill-opacity:1;fill-rule:nonzero;stroke:none"
           id="path95385"
           inkscape:connector-curvature="0" /><path
           d="m 143.533,147.685 10.717,16.08 8.29,12.438 0.964,1.447 11.267,4.609 12.489,5.106 10.757,4.399 1.869,0.764 0.371,0.152 0.175,0.21 6.899,8.226 10.823,12.905 1.395,1.666 -1.542,-1.531 -11.939,-11.835 -7.361,-7.299 -3.03,-0.925 -11.465,-3.5 -13.21,-4.035 -10.712,-3.272 -0.809,-0.245 -0.71,-0.888 -0.619,-0.78 -9.189,-11.592 -11.892,-15 -4.83,-6.092 -2.498,-3.153 9.255,-4.661 1.606,2.408 z"
           style="fill:#000000;fill-opacity:1;fill-rule:nonzero;stroke:none"
           id="path95387"
           inkscape:connector-curvature="0" /><path
           d="m 303.743,563.155 10.115,-18.279 6.686,-12.081 -0.485,-1.238 -5.235,-13.377 -3.9,-9.961 -1.621,-4.141 -0.417,-1.071 0.826,-0.581 9.169,-6.443 16.364,-11.503 -13.701,11.545 -9.277,7.818 2.427,4.58 5.237,9.884 7.037,13.282 0.053,0.1 0.659,1.246 -0.719,1.57 -5.978,10.536 -10.508,18.528 -4.151,7.316 -0.028,0.009 -8.088,2.263 z"
           style="fill:#000000;fill-opacity:1;fill-rule:nonzero;stroke:none"
           id="path95389"
           inkscape:connector-curvature="0" /><path
           d="m 562.814,373.618 -18.863,-2.05 -11.992,-1.303 -13.419,-1.459 -11.86,-1.289 -15.136,-1.644 -15.234,-1.657 -11.291,-1.228 -18.49,-2.009 -4.361,-0.475 4.417,0.292 18.681,1.233 11.454,0.755 15.38,1.015 15.28,1.01 11.991,0.79 13.522,0.893 12.071,0.797 18.979,1.253 3.332,0.219 -0.002,0.019 -0.744,5.242 -0.091,-0.01 z"
           style="fill:#000000;fill-opacity:1;fill-rule:nonzero;stroke:none"
           id="path95391"
           inkscape:connector-curvature="0" /><path
           d="m 399.583,79.546 -1.157,2.844 -7.107,17.469 -4.897,12.037 -5.027,12.355 -5.195,12.77 -5.054,12.424 -4.625,11.364 3.788,-11.615 4.132,-12.67 4.258,-13.053 4.116,-12.618 4.029,-12.355 5.836,-17.889 0.475,-1.459 1.105,-3.389 h 0.002 l 7.212,-0.865 z"
           style="fill:#000000;fill-opacity:1;fill-rule:nonzero;stroke:none"
           id="path95393"
           inkscape:connector-curvature="0" /><path
           d="m 116.702,414.714 13.56,-5.776 3.909,-1.666 -3.727,2.038 -12.943,7.08 -16.513,9.032 -11.136,6.092 c -0.524,-1.597 -1.318,-3.069 -2.324,-4.371 l 11.86,-5.053 z"
           style="fill:#000000;fill-opacity:1;fill-rule:nonzero;stroke:none"
           id="path95395"
           inkscape:connector-curvature="0" /></g></g></g></svg>